{"glyphs":{"0":{"ha":979,"x_min":53,"x_max":928,"o":"m 490 224 q 608 293 563 224 q 635 389 635 336 l 635 682 q 570 826 635 774 q 490 854 532 854 q 372 784 415 854 q 346 689 346 741 l 346 396 q 411 252 346 304 q 490 224 448 224 m 490 -14 q 178 109 307 -14 q 53 396 53 229 l 53 689 q 179 972 53 854 q 490 1092 308 1092 q 802 970 673 1092 q 928 682 928 849 l 928 389 q 802 107 928 224 q 490 -14 671 -14 z "},"1":{"ha":479,"x_min":50,"x_max":397,"o":"m 50 1078 l 328 1078 q 392 1035 374 1078 q 397 1008 397 1021 l 397 0 l 189 0 q 125 41 142 0 q 119 69 119 56 l 119 841 q 56 882 73 841 q 50 910 50 897 l 50 1078 z "},"2":{"ha":876,"x_min":43,"x_max":837,"o":"m 471 841 l 144 841 q 77 883 92 841 q 75 903 75 892 l 75 1078 l 444 1078 q 788 940 692 1078 q 837 777 837 871 q 652 475 837 605 q 473 368 620 452 q 347 262 365 305 q 342 237 342 250 l 738 237 q 802 197 784 237 q 807 168 807 182 l 807 0 l 43 0 l 43 237 q 239 544 43 412 q 425 651 274 568 q 552 753 534 712 q 556 774 556 765 q 511 831 556 810 q 471 841 491 841 z "},"3":{"ha":861,"x_min":53,"x_max":836,"o":"m 429 438 l 171 438 q 111 473 125 438 q 109 484 110 480 l 109 486 l 109 647 l 401 647 q 496 708 472 647 q 505 750 505 728 q 454 830 505 804 q 401 841 430 841 l 142 841 q 79 882 96 841 q 73 910 73 897 l 73 1078 l 401 1078 q 731 948 623 1078 q 795 776 795 871 q 678 564 795 648 q 669 557 673 560 q 827 363 798 491 q 836 301 836 332 q 726 83 836 168 q 444 0 617 0 l 122 0 q 58 41 76 0 q 53 69 53 56 l 53 237 l 429 237 q 525 296 500 237 q 532 331 532 313 q 480 426 532 397 q 429 438 456 438 z "},"4":{"ha":937,"x_min":23,"x_max":884,"o":"m 536 167 q 94 167 536 167 q 28 209 46 167 q 23 236 23 222 l 23 404 l 536 1077 l 536 1078 l 745 1078 q 808 1035 791 1078 q 814 1008 814 1021 l 814 404 l 815 404 q 879 363 861 404 q 884 335 884 349 l 884 167 l 814 167 l 814 0 l 605 0 q 541 41 559 0 q 536 69 536 56 l 536 167 m 309 404 l 536 404 l 536 699 l 309 404 z "},"5":{"ha":902,"x_min":73,"x_max":865,"o":"m 747 1078 q 811 1035 793 1078 q 817 1008 817 1021 l 817 841 l 351 841 l 351 675 l 472 675 q 796 536 688 675 q 865 336 865 448 q 758 96 865 191 q 472 0 648 0 l 152 0 q 87 42 104 0 q 81 69 81 56 l 81 237 l 458 237 q 555 305 532 237 q 562 347 562 326 q 511 450 562 416 q 458 465 487 465 l 142 465 q 79 506 96 465 q 73 534 73 521 l 73 1078 l 747 1078 z "},"6":{"ha":958,"x_min":50,"x_max":917,"o":"m 343 445 l 343 361 q 415 244 343 288 q 515 217 461 217 q 612 294 593 217 q 617 335 617 313 q 564 444 617 403 q 490 469 530 469 q 343 445 433 469 m 515 -20 q 178 92 315 -20 q 50 340 52 198 l 50 675 q 182 956 50 838 q 515 1078 320 1077 l 772 1078 q 836 1038 818 1078 q 842 1008 842 1023 l 842 841 l 515 841 q 374 770 426 841 q 343 675 343 727 l 343 598 q 578 655 473 655 q 864 524 772 655 q 917 349 917 446 q 811 91 917 197 q 515 -20 699 -20 z "},"7":{"ha":784,"x_min":41,"x_max":770,"o":"m 110 841 q 46 882 64 841 q 41 910 41 897 l 41 1078 l 720 1078 q 766 1038 753 1078 q 770 1008 770 1023 l 408 0 l 199 0 q 155 30 171 0 q 148 54 148 42 q 151 69 148 60 l 438 841 l 110 841 z "},"8":{"ha":962,"x_min":23,"x_max":939,"o":"m 416 -14 q 85 122 193 -14 q 23 301 23 202 q 130 528 23 437 q 193 570 159 552 q 66 766 79 647 q 65 791 65 780 q 172 1015 65 925 q 458 1105 282 1105 l 505 1105 q 833 972 724 1105 q 898 791 898 891 q 793 589 898 673 q 769 570 781 578 q 930 368 899 500 q 939 301 939 334 q 829 73 939 163 q 545 -14 720 -14 l 416 -14 m 505 661 q 600 724 575 661 q 606 764 606 743 q 556 856 606 827 q 505 868 533 868 l 458 868 q 363 806 388 868 q 355 764 355 784 q 406 673 355 701 q 458 661 430 661 l 505 661 m 430 452 q 336 381 361 452 q 328 331 328 357 q 380 236 328 264 q 430 224 403 224 l 532 224 q 627 288 601 224 q 635 331 635 309 q 583 438 635 406 q 532 452 559 452 l 430 452 z "},"9":{"ha":959,"x_min":41,"x_max":907,"o":"m 614 633 l 614 716 q 543 834 614 789 q 442 861 498 861 q 346 784 365 861 q 340 743 340 765 q 393 635 340 675 q 468 609 427 609 q 614 633 525 609 m 442 1099 q 780 986 643 1099 q 907 738 906 880 l 907 403 q 776 122 907 240 q 442 0 637 1 l 184 0 q 121 41 138 0 q 115 69 115 56 l 115 237 l 442 237 q 583 308 532 237 q 614 403 614 351 l 614 479 q 381 422 484 422 q 95 553 187 422 q 41 730 41 632 q 146 987 41 882 q 442 1099 259 1099 z "}," ":{"ha":338,"x_min":0,"x_max":0,"o":""},"!":{"ha":433,"x_min":73,"x_max":355,"o":"m 99 637 l 99 1078 l 286 1078 q 350 1035 332 1078 q 355 1008 355 1021 l 355 637 l 330 334 l 186 334 q 121 384 137 334 q 117 403 118 393 l 99 637 m 73 231 l 282 231 q 346 190 328 231 q 351 161 351 175 l 351 0 l 142 0 q 79 41 96 0 q 73 69 73 56 l 73 231 z "},"\"":{"ha":665,"x_min":56,"x_max":612,"o":"m 389 1081 l 556 1081 q 609 1044 595 1081 q 612 1025 612 1035 l 589 655 l 456 655 q 414 685 425 655 q 411 700 411 693 l 389 1081 m 56 1081 l 222 1081 q 275 1044 262 1081 q 278 1025 278 1035 l 255 655 l 122 655 q 80 685 91 655 q 77 700 77 693 l 56 1081 z "},"#":{"ha":1183,"x_min":-7,"x_max":1188,"o":"m 979 433 q 1043 392 1025 433 q 1048 363 1048 377 l 1048 210 l 848 210 l 777 0 l 597 0 q 548 37 555 0 q 547 47 547 43 q 551 69 547 58 l 597 210 l 374 210 l 305 0 l 125 0 q 76 37 83 0 q 75 47 75 43 q 77 69 75 61 l 125 210 l 62 210 q -1 251 16 210 q -7 279 -7 266 l -7 433 l 199 433 l 262 613 l 201 613 q 137 654 155 613 q 132 682 132 669 l 132 836 l 336 836 l 416 1078 l 597 1078 q 646 1042 639 1078 q 647 1031 647 1035 q 644 1008 647 1016 l 586 836 l 808 836 l 888 1078 l 1069 1078 q 1118 1042 1111 1078 q 1119 1031 1119 1035 q 1116 1008 1119 1016 l 1058 836 l 1118 836 q 1183 793 1165 836 q 1188 766 1188 780 l 1188 613 l 983 613 l 922 433 l 979 433 m 450 433 l 673 433 l 734 613 l 511 613 l 450 433 z "},"$":{"ha":884,"x_min":43,"x_max":850,"o":"m 548 1078 l 743 1078 q 810 1036 795 1078 q 812 1016 812 1027 l 812 841 l 416 841 q 343 804 369 841 q 332 774 332 789 q 427 681 332 732 q 506 640 450 667 q 747 494 678 556 q 850 282 849 399 q 713 54 850 130 q 548 4 643 15 l 548 -111 l 382 -111 q 317 -69 335 -111 q 312 -42 312 -56 l 312 0 l 113 0 q 49 41 66 0 q 43 69 43 56 l 43 237 l 467 237 q 540 275 514 237 q 551 307 551 290 q 456 401 551 350 q 377 441 433 414 q 146 581 212 521 q 50 777 52 669 q 217 1035 50 959 q 312 1065 260 1054 l 312 1190 l 479 1190 q 543 1146 525 1190 q 548 1119 548 1133 l 548 1078 z "},"%":{"ha":1188,"x_min":9,"x_max":1177,"o":"m 831 1078 l 1040 1078 q 1077 1048 1076 1077 q 1061 1008 1076 1032 l 355 0 l 148 0 q 111 30 113 1 q 126 69 113 46 l 831 1078 m 236 722 q 273 749 263 722 q 275 764 275 757 l 275 830 q 248 878 275 867 q 236 880 241 880 q 198 853 209 880 q 195 838 195 845 l 195 772 q 222 724 195 736 q 236 722 229 722 m 236 525 q 58 609 127 525 q 9 745 9 669 l 9 876 q 95 1035 9 974 q 236 1078 159 1078 q 414 994 346 1078 q 461 859 461 933 l 461 727 q 377 570 461 631 q 236 525 315 525 m 952 197 q 989 224 979 197 q 991 239 991 232 l 991 305 q 964 353 991 342 q 952 355 958 355 q 916 328 925 355 q 913 313 913 320 l 913 247 q 940 199 913 210 q 952 197 947 197 m 952 0 q 774 84 842 0 q 727 220 727 145 l 727 351 q 811 509 727 448 q 952 553 873 553 q 1130 469 1062 553 q 1177 334 1177 408 l 1177 201 q 1092 42 1177 103 q 952 0 1029 0 z "},"&":{"ha":935,"x_min":45,"x_max":906,"o":"m 429 540 q 506 594 488 540 q 511 624 511 609 q 467 699 511 678 q 429 707 449 707 l 392 707 q 313 652 331 707 q 309 624 309 637 q 355 548 309 568 q 392 540 373 540 l 429 540 m 651 473 q 694 422 674 458 l 806 422 q 859 385 845 422 q 861 366 861 376 l 861 243 l 785 243 l 906 4 l 722 4 q 655 49 677 5 q 463 1 574 1 l 358 1 q 87 119 170 1 q 45 252 45 180 q 140 441 45 369 q 179 467 159 456 q 77 644 80 540 q 172 830 77 757 q 392 895 259 895 l 429 895 q 697 781 610 895 q 743 644 743 719 q 651 473 742 543 m 411 407 l 414 407 l 411 407 m 452 373 l 369 373 q 293 313 311 373 q 288 277 288 294 q 331 198 288 221 q 369 190 349 190 l 452 190 q 528 245 510 190 q 533 277 533 262 q 486 365 533 343 q 452 373 469 373 z "},"'":{"ha":331,"x_min":56,"x_max":278,"o":"m 56 1081 l 222 1081 q 275 1044 262 1081 q 278 1025 278 1035 l 255 655 l 122 655 q 80 685 91 655 q 77 700 77 693 l 56 1081 z "},"(":{"ha":544,"x_min":43,"x_max":522,"o":"m 281 327 q 361 161 281 221 q 453 126 403 130 q 519 76 507 121 q 522 57 522 66 l 522 -111 l 453 -111 q 164 16 283 -111 q 43 327 43 146 l 43 716 q 164 1002 43 884 q 453 1119 285 1119 q 517 1078 499 1119 q 522 1050 522 1063 l 522 882 l 453 882 q 312 811 363 882 q 281 716 281 768 l 281 327 z "},")":{"ha":547,"x_min":23,"x_max":503,"o":"m 266 682 q 184 848 266 789 q 94 882 142 878 q 26 932 39 887 q 23 951 23 941 l 23 1119 l 94 1119 q 382 993 262 1119 q 503 682 503 864 l 503 292 q 382 5 503 123 q 94 -111 262 -111 q 28 -69 46 -111 q 23 -42 23 -56 l 23 126 l 94 126 q 235 197 183 126 q 266 292 266 240 l 266 682 z "},"*":{"ha":704,"x_min":4,"x_max":690,"o":"m 264 997 l 397 997 q 439 967 429 997 q 442 952 442 959 l 430 770 l 647 854 l 689 728 q 690 713 690 723 q 659 673 689 682 l 475 624 l 636 426 l 529 347 q 503 339 515 339 q 467 357 479 340 l 362 521 l 235 321 l 126 399 q 109 435 110 411 q 117 461 110 449 l 237 609 l 4 670 l 46 796 q 88 826 56 825 q 102 825 98 826 l 278 755 l 264 997 z "},"+":{"ha":846,"x_min":35,"x_max":812,"o":"m 534 864 l 534 655 l 743 655 q 807 614 789 655 q 812 586 812 600 l 812 431 l 534 431 l 534 156 l 381 156 q 316 198 334 156 q 311 225 311 212 l 311 431 l 104 431 q 41 475 58 431 q 35 502 35 488 l 35 655 l 311 655 l 311 933 l 467 933 q 530 890 514 933 q 534 864 534 878 z "},",":{"ha":427,"x_min":80,"x_max":350,"o":"m 80 231 l 289 231 q 350 159 349 228 q 334 72 350 114 l 255 -132 l 122 -132 l 151 0 q 85 42 103 0 q 80 69 80 56 l 80 231 z "},"-":{"ha":665,"x_min":41,"x_max":624,"o":"m 555 433 q 618 392 601 433 q 624 363 624 377 l 624 210 l 110 210 q 46 251 64 210 q 41 279 41 266 l 41 433 l 555 433 z "},".":{"ha":441,"x_min":81,"x_max":359,"o":"m 81 231 l 290 231 q 354 190 336 231 q 359 161 359 175 l 359 0 l 152 0 q 87 42 104 0 q 81 69 81 56 l 81 231 z "},"/":{"ha":595,"x_min":11,"x_max":585,"o":"m 354 1078 l 534 1078 q 583 1042 576 1078 q 585 1031 585 1035 q 581 1008 585 1019 l 241 0 l 61 0 q 12 37 19 0 q 11 47 11 43 q 15 69 11 58 l 354 1078 z "},":":{"ha":441,"x_min":81,"x_max":359,"o":"m 81 745 l 290 745 q 354 704 336 745 q 359 675 359 689 l 359 514 l 152 514 q 87 556 104 514 q 81 583 81 570 l 81 745 m 81 231 l 290 231 q 354 190 336 231 q 359 161 359 175 l 359 0 l 152 0 q 87 42 104 0 q 81 69 81 56 l 81 231 z "},";":{"ha":437,"x_min":77,"x_max":358,"o":"m 80 745 l 289 745 q 353 704 335 745 q 358 675 358 689 l 358 514 l 151 514 q 85 556 103 514 q 80 583 80 570 l 80 745 m 79 231 l 288 231 q 349 159 347 228 q 332 72 349 114 l 254 -132 l 121 -132 l 149 0 q 84 42 102 0 q 79 69 79 56 l 79 231 z "},"<":{"ha":677,"x_min":50,"x_max":624,"o":"m 256 536 l 568 401 q 623 349 612 391 q 624 331 624 339 l 624 148 l 106 391 q 50 461 52 416 l 50 647 l 568 905 q 581 906 574 906 q 620 879 608 906 q 624 864 624 871 l 624 686 l 256 536 z "},"=":{"ha":845,"x_min":41,"x_max":804,"o":"m 735 433 q 799 392 781 433 q 804 363 804 377 l 804 210 l 110 210 q 46 251 64 210 q 41 279 41 266 l 41 433 l 735 433 m 735 836 q 799 795 781 836 q 804 766 804 780 l 804 613 l 110 613 q 46 654 64 613 q 41 682 41 669 l 41 836 l 735 836 z "},">":{"ha":674,"x_min":52,"x_max":625,"o":"m 418 518 l 107 651 q 53 704 64 662 q 52 722 52 713 l 52 906 l 570 663 q 625 593 624 637 l 625 406 l 107 151 q 95 148 99 148 q 56 175 68 148 q 52 190 52 183 l 52 368 l 418 518 z "},"?":{"ha":807,"x_min":31,"x_max":793,"o":"m 426 841 l 100 841 q 34 883 49 841 q 31 903 31 892 l 31 1078 l 399 1078 q 743 943 644 1078 q 793 777 793 872 q 633 490 793 593 q 502 419 616 477 q 420 345 427 380 q 419 335 419 339 l 180 335 q 311 579 180 475 q 388 635 336 600 q 498 728 476 694 q 511 774 511 751 q 467 831 511 810 q 426 841 446 841 m 167 231 l 374 231 q 439 189 422 231 q 445 161 445 175 l 445 0 l 236 0 q 172 41 190 0 q 167 69 167 56 l 167 231 z "},"@":{"ha":1249,"x_min":15,"x_max":1240,"o":"m 686 483 l 686 597 q 590 623 629 623 q 521 568 540 623 q 515 536 515 552 q 568 467 515 477 q 589 464 578 464 q 686 483 632 464 m 719 182 l 787 7 q 610 -16 707 -16 q 149 174 315 -16 q 15 540 15 328 q 149 906 15 753 q 610 1095 317 1095 q 1104 941 935 1095 q 1240 617 1240 818 q 815 271 1237 273 q 689 309 704 271 q 686 316 688 313 q 562 283 623 283 q 347 397 418 283 q 305 545 305 465 q 392 736 305 669 q 544 784 454 784 q 685 735 618 783 l 685 795 l 891 795 l 891 446 q 1024 605 1023 449 q 796 891 1024 838 q 620 909 722 909 q 285 760 399 909 q 212 538 212 663 q 321 277 212 382 q 620 170 435 170 q 719 182 674 170 z "},"A":{"ha":941,"x_min":0,"x_max":947,"o":"m 298 153 l 262 0 l 53 0 q 7 30 24 0 q 0 54 0 42 q 3 69 0 60 l 281 1078 l 581 1078 q 662 1028 635 1078 q 670 1008 667 1019 l 947 0 l 732 0 q 651 52 677 0 q 644 69 647 61 l 624 153 l 298 153 m 358 391 l 564 391 l 461 804 l 358 391 z "},"B":{"ha":968,"x_min":83,"x_max":944,"o":"m 776 557 q 936 366 903 492 q 944 301 944 334 q 834 83 944 168 q 552 0 726 0 l 153 0 q 88 42 106 0 q 83 69 83 56 l 83 1078 l 510 1078 q 840 948 731 1078 q 903 776 903 871 q 788 566 903 651 q 776 557 781 562 m 361 841 l 361 647 l 510 647 q 605 708 581 647 q 613 750 613 728 q 563 830 613 804 q 510 841 538 841 l 361 841 m 361 438 l 361 237 l 537 237 q 633 296 609 237 q 640 331 640 313 q 589 426 640 397 q 537 438 564 438 l 361 438 z "},"C":{"ha":865,"x_min":52,"x_max":836,"o":"m 345 438 q 414 273 345 332 q 503 237 454 237 l 766 237 q 830 197 812 237 q 836 168 836 182 l 836 0 l 503 0 q 187 126 319 0 q 52 438 56 260 l 52 675 q 180 958 52 840 q 503 1078 315 1078 l 760 1078 q 823 1035 806 1078 q 829 1008 829 1021 l 829 841 l 503 841 q 373 770 420 841 q 345 675 345 727 l 345 438 z "},"D":{"ha":978,"x_min":81,"x_max":930,"o":"m 637 669 q 568 811 637 760 q 479 841 528 841 l 359 841 l 359 237 l 479 237 q 609 308 562 237 q 637 403 637 351 l 637 669 m 479 0 l 152 0 q 87 42 104 0 q 81 69 81 56 l 81 1078 l 479 1078 q 800 956 667 1078 q 930 669 929 836 l 930 403 q 802 121 930 239 q 479 0 667 0 z "},"E":{"ha":894,"x_min":83,"x_max":833,"o":"m 764 237 q 827 197 810 237 q 833 168 833 182 l 833 0 l 153 0 q 88 42 106 0 q 83 69 83 56 l 83 1078 l 757 1078 q 821 1035 803 1078 q 826 1008 826 1021 l 826 841 l 361 841 l 361 655 l 715 655 q 780 613 762 655 q 785 586 785 600 l 785 431 l 361 431 l 361 237 l 764 237 z "},"F":{"ha":827,"x_min":83,"x_max":806,"o":"m 361 0 m 736 1078 q 800 1035 783 1078 q 806 1008 806 1021 l 806 841 l 361 841 l 361 655 l 694 655 q 758 614 741 655 q 764 586 764 600 l 764 431 l 361 431 l 361 0 l 153 0 q 88 42 106 0 q 83 69 83 56 l 83 1078 l 736 1078 z "},"G":{"ha":966,"x_min":52,"x_max":892,"o":"m 345 410 q 414 267 345 319 q 503 237 454 237 l 616 237 l 616 564 l 823 564 q 887 524 869 564 q 892 495 892 509 l 892 0 l 503 0 q 182 122 315 0 q 52 410 53 243 l 52 675 q 180 958 52 840 q 503 1078 315 1078 l 808 1078 q 872 1035 854 1078 q 878 1008 878 1021 l 878 841 l 503 841 q 373 770 420 841 q 345 675 345 727 l 345 410 z "},"H":{"ha":1000,"x_min":83,"x_max":917,"o":"m 83 1078 l 292 1078 q 355 1035 338 1078 q 361 1008 361 1021 l 361 640 l 639 640 l 639 1078 l 848 1078 q 911 1035 894 1078 q 917 1008 917 1021 l 917 0 l 708 0 q 644 41 662 0 q 639 69 639 56 l 639 403 l 361 403 l 361 0 l 153 0 q 88 42 106 0 q 83 69 83 56 l 83 1078 z "},"I":{"ha":444,"x_min":83,"x_max":361,"o":"m 83 1078 l 292 1078 q 355 1035 338 1078 q 361 1008 361 1021 l 361 0 l 153 0 q 88 42 106 0 q 83 69 83 56 l 83 1078 z "},"J":{"ha":880,"x_min":0,"x_max":806,"o":"m 278 288 q 372 213 304 224 q 389 212 381 212 q 506 274 468 212 q 528 355 528 309 l 528 1078 l 736 1078 q 800 1035 783 1078 q 806 1008 806 1021 l 806 355 q 647 47 806 153 q 389 -27 534 -27 q 111 79 222 -27 q 0 355 0 186 l 194 355 q 275 294 247 355 q 278 288 277 290 z "},"K":{"ha":970,"x_min":83,"x_max":977,"o":"m 921 1023 m 83 1078 l 292 1078 q 355 1035 338 1078 q 361 1008 361 1021 l 361 688 l 650 1078 l 892 1078 q 933 1050 929 1076 q 922 1024 932 1038 l 582 564 l 977 -3 l 699 -3 q 597 53 633 -1 l 361 393 l 361 0 l 153 0 q 88 42 106 0 q 83 69 83 56 l 83 1078 z "},"L":{"ha":821,"x_min":83,"x_max":792,"o":"m 83 1078 l 292 1078 q 355 1035 338 1078 q 361 1008 361 1021 l 361 237 l 722 237 q 787 195 769 237 q 792 168 792 182 l 792 0 l 153 0 q 88 42 106 0 q 83 69 83 56 l 83 1078 z "},"M":{"ha":1291,"x_min":83,"x_max":1208,"o":"m 292 1078 q 392 1021 359 1078 q 395 1016 393 1019 l 646 538 l 930 1078 l 1111 1078 q 1200 1036 1175 1078 q 1208 1008 1208 1023 l 1208 0 l 1000 0 q 936 41 954 0 q 930 69 930 56 l 930 614 l 785 277 l 576 277 q 480 331 511 277 q 477 336 479 334 l 361 601 l 361 0 l 153 0 q 88 42 106 0 q 83 69 83 56 l 83 1078 l 292 1078 z "},"N":{"ha":1013,"x_min":83,"x_max":930,"o":"m 652 1078 l 861 1078 q 925 1035 907 1078 q 930 1008 930 1021 l 930 0 l 722 0 q 621 60 654 0 q 620 62 620 61 l 361 552 l 361 0 l 153 0 q 88 42 106 0 q 83 69 83 56 l 83 1078 l 292 1078 q 392 1021 359 1078 q 395 1016 393 1019 l 652 526 l 652 1078 z "},"O":{"ha":1005,"x_min":52,"x_max":954,"o":"m 503 220 q 633 292 587 220 q 661 385 661 335 l 661 686 q 593 829 661 777 q 503 859 552 859 q 373 788 420 859 q 345 693 345 745 l 345 392 q 414 250 345 301 q 503 220 454 220 m 503 -18 q 182 104 315 -18 q 52 392 53 225 l 52 693 q 180 975 52 857 q 503 1096 315 1096 q 823 975 690 1096 q 954 686 952 854 l 954 385 q 825 103 954 221 q 503 -18 690 -18 z "},"P":{"ha":951,"x_min":83,"x_max":926,"o":"m 361 841 l 361 532 l 473 532 q 628 616 589 532 q 642 678 642 646 q 578 807 642 758 q 473 841 533 841 l 361 841 m 361 294 l 361 0 l 153 0 q 88 42 106 0 q 83 69 83 56 l 83 1078 l 473 1078 q 834 928 707 1078 q 926 678 926 818 q 808 408 926 517 q 473 294 684 294 l 361 294 z "},"Q":{"ha":1009,"x_min":50,"x_max":958,"o":"m 502 220 q 632 292 586 220 q 659 385 659 335 l 659 686 q 591 829 659 777 q 502 859 551 859 q 372 788 419 859 q 343 693 343 745 l 343 392 q 412 250 343 301 q 502 220 453 220 m 502 -18 q 180 104 313 -18 q 50 392 52 225 l 50 693 q 179 975 50 857 q 502 1096 313 1096 q 822 975 689 1096 q 952 686 951 854 l 952 385 q 833 111 952 227 q 825 104 827 107 l 958 -83 l 686 -83 q 578 -27 616 -81 l 570 -14 q 502 -18 536 -18 z "},"R":{"ha":991,"x_min":83,"x_max":963,"o":"m 361 841 l 361 560 l 473 560 q 629 640 591 560 q 642 694 642 666 q 576 812 642 769 q 473 841 532 841 l 361 841 m 361 323 l 361 0 l 153 0 q 88 42 106 0 q 83 69 83 56 l 83 1078 l 473 1078 q 837 930 709 1078 q 926 693 926 826 q 812 435 926 540 q 704 366 765 393 l 963 0 l 692 0 q 583 56 621 1 l 396 323 l 361 323 z "},"S":{"ha":886,"x_min":43,"x_max":850,"o":"m 850 282 q 713 53 850 130 q 480 0 618 0 l 113 0 q 49 41 66 0 q 43 69 43 56 l 43 237 l 467 237 q 540 275 514 237 q 551 307 551 290 q 456 401 551 350 q 377 441 433 414 q 146 581 212 521 q 50 777 52 669 q 209 1031 50 952 q 445 1078 305 1078 l 743 1078 q 810 1036 795 1078 q 812 1016 812 1027 l 812 841 l 416 841 q 343 804 369 841 q 332 774 332 789 q 427 681 332 732 q 506 640 450 667 q 747 494 678 556 q 850 282 849 399 z "},"T":{"ha":876,"x_min":22,"x_max":854,"o":"m 785 1078 q 849 1035 831 1078 q 854 1008 854 1021 l 854 841 l 578 841 l 578 0 l 369 0 q 305 41 323 0 q 300 69 300 56 l 300 841 l 92 841 q 27 883 45 841 q 22 910 22 897 l 22 1078 l 785 1078 z "},"U":{"ha":982,"x_min":75,"x_max":909,"o":"m 491 212 q 609 274 570 212 q 631 355 631 309 l 631 1078 l 838 1078 q 902 1038 884 1078 q 909 1008 909 1023 l 909 355 q 750 47 909 153 q 491 -27 637 -27 q 191 80 311 -27 q 75 355 75 186 l 75 1008 q 117 1073 75 1055 q 144 1078 130 1078 l 353 1078 l 353 355 q 430 225 353 260 q 491 212 460 212 z "},"V":{"ha":944,"x_min":-5,"x_max":943,"o":"m 480 281 l 669 1078 l 890 1078 q 936 1048 918 1078 q 943 1024 943 1036 q 940 1008 943 1017 l 661 0 l 362 0 q 281 52 307 0 q 274 69 277 61 l -5 1078 l 210 1078 q 290 1027 264 1078 q 298 1008 296 1017 l 480 281 z "},"W":{"ha":1416,"x_min":16,"x_max":1396,"o":"m 1028 331 l 1120 1078 l 1343 1078 q 1389 1048 1371 1078 q 1396 1024 1396 1036 q 1393 1008 1396 1017 l 1225 0 l 926 0 q 845 46 872 0 q 837 69 840 58 l 715 609 l 572 0 l 274 0 q 193 50 218 0 q 184 69 187 60 l 16 1078 l 232 1078 q 313 1028 286 1078 q 321 1008 319 1019 l 412 351 l 559 933 l 802 926 q 882 880 859 925 q 887 865 886 872 l 1028 331 z "},"X":{"ha":998,"x_min":23,"x_max":971,"o":"m 499 670 l 671 1078 l 892 1078 q 939 1048 921 1078 q 945 1024 945 1036 q 943 1008 945 1017 l 688 532 q 690 528 689 530 l 971 0 l 742 0 q 661 52 686 0 q 654 69 656 61 l 487 411 l 298 0 l 76 0 q 30 30 47 0 q 23 54 23 42 q 26 69 23 60 l 300 544 q 277 581 288 557 l 26 1078 l 255 1078 q 336 1028 309 1078 q 345 1008 342 1019 l 499 670 z "},"Y":{"ha":960,"x_min":4,"x_max":951,"o":"m 490 597 l 678 1078 l 901 1078 q 945 1047 930 1078 q 951 1024 951 1036 q 949 1008 951 1013 l 629 361 l 629 0 l 420 0 q 357 41 374 0 q 351 69 351 56 l 351 373 q 307 430 323 393 l 4 1078 l 233 1078 q 315 1028 288 1078 q 323 1008 320 1019 l 490 597 z "},"Z":{"ha":917,"x_min":56,"x_max":861,"o":"m 125 841 q 61 882 79 841 q 56 910 56 897 l 56 1078 l 792 1078 q 856 1035 838 1078 q 861 1008 861 1021 l 861 841 l 381 237 l 792 237 q 856 197 838 237 q 861 168 861 182 l 861 0 l 125 0 q 61 41 79 0 q 56 69 56 56 l 56 237 l 526 841 l 125 841 z "},"[":{"ha":575,"x_min":81,"x_max":540,"o":"m 471 126 q 534 85 517 126 q 540 57 540 71 l 540 -111 l 152 -111 q 87 -69 104 -111 q 81 -42 81 -56 l 81 1119 l 464 1119 q 528 1078 510 1119 q 533 1050 533 1063 l 533 882 l 317 882 l 317 126 l 471 126 z "},"\\":{"ha":618,"x_min":4,"x_max":617,"o":"m 4 1078 l 184 1078 q 264 1034 233 1078 q 278 1008 274 1020 l 617 0 l 437 0 q 357 43 388 0 q 343 69 347 57 l 4 1078 z "},"]":{"ha":576,"x_min":37,"x_max":495,"o":"m 106 882 q 42 922 60 882 q 37 951 37 937 l 37 1119 l 425 1119 q 490 1077 472 1119 q 495 1050 495 1063 l 495 -111 l 113 -111 q 49 -71 66 -111 q 43 -42 43 -56 l 43 126 l 258 126 l 258 882 l 106 882 z "},"^":{"ha":791,"x_min":19,"x_max":777,"o":"m 389 882 l 239 517 l 61 517 q 23 544 35 517 q 19 560 19 552 q 20 572 19 568 l 278 1089 l 465 1089 q 536 1034 511 1088 l 777 517 l 594 517 q 528 560 547 517 q 524 572 525 567 l 389 882 z "},"_":{"ha":845,"x_min":41,"x_max":818,"o":"m 749 3 q 812 -38 795 3 q 818 -66 818 -53 l 818 -221 l 110 -221 q 46 -180 64 -221 q 41 -152 41 -165 l 41 3 l 749 3 z "},"`":{"ha":429,"x_min":-23,"x_max":450,"o":"m -23 1081 l 198 1081 q 275 1040 241 1081 q 286 1025 282 1032 l 450 655 l 289 655 q 227 690 254 655 q 220 700 222 696 l -23 1081 z "},"a":{"ha":941,"x_min":0,"x_max":947,"o":"m 298 153 l 262 0 l 53 0 q 7 30 24 0 q 0 54 0 42 q 3 69 0 60 l 281 1078 l 581 1078 q 662 1028 635 1078 q 670 1008 667 1019 l 947 0 l 732 0 q 651 52 677 0 q 644 69 647 61 l 624 153 l 298 153 m 358 391 l 564 391 l 461 804 l 358 391 z "},"b":{"ha":968,"x_min":83,"x_max":944,"o":"m 776 557 q 936 366 903 492 q 944 301 944 334 q 834 83 944 168 q 552 0 726 0 l 153 0 q 88 42 106 0 q 83 69 83 56 l 83 1078 l 510 1078 q 840 948 731 1078 q 903 776 903 871 q 788 566 903 651 q 776 557 781 562 m 361 841 l 361 647 l 510 647 q 605 708 581 647 q 613 750 613 728 q 563 830 613 804 q 510 841 538 841 l 361 841 m 361 438 l 361 237 l 537 237 q 633 296 609 237 q 640 331 640 313 q 589 426 640 397 q 537 438 564 438 l 361 438 z "},"c":{"ha":865,"x_min":52,"x_max":836,"o":"m 345 438 q 414 273 345 332 q 503 237 454 237 l 766 237 q 830 197 812 237 q 836 168 836 182 l 836 0 l 503 0 q 187 126 319 0 q 52 438 56 260 l 52 675 q 180 958 52 840 q 503 1078 315 1078 l 760 1078 q 823 1035 806 1078 q 829 1008 829 1021 l 829 841 l 503 841 q 373 770 420 841 q 345 675 345 727 l 345 438 z "},"d":{"ha":978,"x_min":81,"x_max":930,"o":"m 637 669 q 568 811 637 760 q 479 841 528 841 l 359 841 l 359 237 l 479 237 q 609 308 562 237 q 637 403 637 351 l 637 669 m 479 0 l 152 0 q 87 42 104 0 q 81 69 81 56 l 81 1078 l 479 1078 q 800 956 667 1078 q 930 669 929 836 l 930 403 q 802 121 930 239 q 479 0 667 0 z "},"e":{"ha":894,"x_min":83,"x_max":833,"o":"m 764 237 q 827 197 810 237 q 833 168 833 182 l 833 0 l 153 0 q 88 42 106 0 q 83 69 83 56 l 83 1078 l 757 1078 q 821 1035 803 1078 q 826 1008 826 1021 l 826 841 l 361 841 l 361 655 l 715 655 q 780 613 762 655 q 785 586 785 600 l 785 431 l 361 431 l 361 237 l 764 237 z "},"f":{"ha":827,"x_min":83,"x_max":806,"o":"m 361 0 m 736 1078 q 800 1035 783 1078 q 806 1008 806 1021 l 806 841 l 361 841 l 361 655 l 694 655 q 758 614 741 655 q 764 586 764 600 l 764 431 l 361 431 l 361 0 l 153 0 q 88 42 106 0 q 83 69 83 56 l 83 1078 l 736 1078 z "},"g":{"ha":966,"x_min":52,"x_max":892,"o":"m 345 410 q 414 267 345 319 q 503 237 454 237 l 616 237 l 616 564 l 823 564 q 887 524 869 564 q 892 495 892 509 l 892 0 l 503 0 q 182 122 315 0 q 52 410 53 243 l 52 675 q 180 958 52 840 q 503 1078 315 1078 l 808 1078 q 872 1035 854 1078 q 878 1008 878 1021 l 878 841 l 503 841 q 373 770 420 841 q 345 675 345 727 l 345 410 z "},"h":{"ha":1000,"x_min":83,"x_max":917,"o":"m 83 1078 l 292 1078 q 355 1035 338 1078 q 361 1008 361 1021 l 361 640 l 639 640 l 639 1078 l 848 1078 q 911 1035 894 1078 q 917 1008 917 1021 l 917 0 l 708 0 q 644 41 662 0 q 639 69 639 56 l 639 403 l 361 403 l 361 0 l 153 0 q 88 42 106 0 q 83 69 83 56 l 83 1078 z "},"i":{"ha":444,"x_min":83,"x_max":361,"o":"m 83 1078 l 292 1078 q 355 1035 338 1078 q 361 1008 361 1021 l 361 0 l 153 0 q 88 42 106 0 q 83 69 83 56 l 83 1078 z "},"j":{"ha":880,"x_min":0,"x_max":806,"o":"m 278 288 q 372 213 304 224 q 389 212 381 212 q 506 274 468 212 q 528 355 528 309 l 528 1078 l 736 1078 q 800 1035 783 1078 q 806 1008 806 1021 l 806 355 q 647 47 806 153 q 389 -27 534 -27 q 111 79 222 -27 q 0 355 0 186 l 194 355 q 275 294 247 355 q 278 288 277 290 z "},"k":{"ha":970,"x_min":83,"x_max":977,"o":"m 921 1023 m 83 1078 l 292 1078 q 355 1035 338 1078 q 361 1008 361 1021 l 361 688 l 650 1078 l 892 1078 q 933 1050 929 1076 q 922 1024 932 1038 l 582 564 l 977 -3 l 699 -3 q 597 53 633 -1 l 361 393 l 361 0 l 153 0 q 88 42 106 0 q 83 69 83 56 l 83 1078 z "},"l":{"ha":821,"x_min":83,"x_max":792,"o":"m 83 1078 l 292 1078 q 355 1035 338 1078 q 361 1008 361 1021 l 361 237 l 722 237 q 787 195 769 237 q 792 168 792 182 l 792 0 l 153 0 q 88 42 106 0 q 83 69 83 56 l 83 1078 z "},"m":{"ha":1291,"x_min":83,"x_max":1208,"o":"m 292 1078 q 392 1021 359 1078 q 395 1016 393 1019 l 646 538 l 930 1078 l 1111 1078 q 1200 1036 1175 1078 q 1208 1008 1208 1023 l 1208 0 l 1000 0 q 936 41 954 0 q 930 69 930 56 l 930 614 l 785 277 l 576 277 q 480 331 511 277 q 477 336 479 334 l 361 601 l 361 0 l 153 0 q 88 42 106 0 q 83 69 83 56 l 83 1078 l 292 1078 z "},"n":{"ha":1013,"x_min":83,"x_max":930,"o":"m 652 1078 l 861 1078 q 925 1035 907 1078 q 930 1008 930 1021 l 930 0 l 722 0 q 621 60 654 0 q 620 62 620 61 l 361 552 l 361 0 l 153 0 q 88 42 106 0 q 83 69 83 56 l 83 1078 l 292 1078 q 392 1021 359 1078 q 395 1016 393 1019 l 652 526 l 652 1078 z "},"o":{"ha":1005,"x_min":52,"x_max":954,"o":"m 503 220 q 633 292 587 220 q 661 385 661 335 l 661 686 q 593 829 661 777 q 503 859 552 859 q 373 788 420 859 q 345 693 345 745 l 345 392 q 414 250 345 301 q 503 220 454 220 m 503 -18 q 182 104 315 -18 q 52 392 53 225 l 52 693 q 180 975 52 857 q 503 1096 315 1096 q 823 975 690 1096 q 954 686 952 854 l 954 385 q 825 103 954 221 q 503 -18 690 -18 z "},"p":{"ha":951,"x_min":83,"x_max":926,"o":"m 361 841 l 361 532 l 473 532 q 628 616 589 532 q 642 678 642 646 q 578 807 642 758 q 473 841 533 841 l 361 841 m 361 294 l 361 0 l 153 0 q 88 42 106 0 q 83 69 83 56 l 83 1078 l 473 1078 q 834 928 707 1078 q 926 678 926 818 q 808 408 926 517 q 473 294 684 294 l 361 294 z "},"q":{"ha":1009,"x_min":50,"x_max":958,"o":"m 502 220 q 632 292 586 220 q 659 385 659 335 l 659 686 q 591 829 659 777 q 502 859 551 859 q 372 788 419 859 q 343 693 343 745 l 343 392 q 412 250 343 301 q 502 220 453 220 m 502 -18 q 180 104 313 -18 q 50 392 52 225 l 50 693 q 179 975 50 857 q 502 1096 313 1096 q 822 975 689 1096 q 952 686 951 854 l 952 385 q 833 111 952 227 q 825 104 827 107 l 958 -83 l 686 -83 q 578 -27 616 -81 l 570 -14 q 502 -18 536 -18 z "},"r":{"ha":991,"x_min":83,"x_max":963,"o":"m 361 841 l 361 560 l 473 560 q 629 640 591 560 q 642 694 642 666 q 576 812 642 769 q 473 841 532 841 l 361 841 m 361 323 l 361 0 l 153 0 q 88 42 106 0 q 83 69 83 56 l 83 1078 l 473 1078 q 837 930 709 1078 q 926 693 926 826 q 812 435 926 540 q 704 366 765 393 l 963 0 l 692 0 q 583 56 621 1 l 396 323 l 361 323 z "},"s":{"ha":886,"x_min":43,"x_max":850,"o":"m 850 282 q 713 53 850 130 q 480 0 618 0 l 113 0 q 49 41 66 0 q 43 69 43 56 l 43 237 l 467 237 q 540 275 514 237 q 551 307 551 290 q 456 401 551 350 q 377 441 433 414 q 146 581 212 521 q 50 777 52 669 q 209 1031 50 952 q 445 1078 305 1078 l 743 1078 q 810 1036 795 1078 q 812 1016 812 1027 l 812 841 l 416 841 q 343 804 369 841 q 332 774 332 789 q 427 681 332 732 q 506 640 450 667 q 747 494 678 556 q 850 282 849 399 z "},"t":{"ha":876,"x_min":22,"x_max":854,"o":"m 785 1078 q 849 1035 831 1078 q 854 1008 854 1021 l 854 841 l 578 841 l 578 0 l 369 0 q 305 41 323 0 q 300 69 300 56 l 300 841 l 92 841 q 27 883 45 841 q 22 910 22 897 l 22 1078 l 785 1078 z "},"u":{"ha":982,"x_min":75,"x_max":909,"o":"m 491 212 q 609 274 570 212 q 631 355 631 309 l 631 1078 l 838 1078 q 902 1038 884 1078 q 909 1008 909 1023 l 909 355 q 750 47 909 153 q 491 -27 637 -27 q 191 80 311 -27 q 75 355 75 186 l 75 1008 q 117 1073 75 1055 q 144 1078 130 1078 l 353 1078 l 353 355 q 430 225 353 260 q 491 212 460 212 z "},"v":{"ha":944,"x_min":-5,"x_max":943,"o":"m 480 281 l 669 1078 l 890 1078 q 936 1048 918 1078 q 943 1024 943 1036 q 940 1008 943 1017 l 661 0 l 362 0 q 281 52 307 0 q 274 69 277 61 l -5 1078 l 210 1078 q 290 1027 264 1078 q 298 1008 296 1017 l 480 281 z "},"w":{"ha":1416,"x_min":16,"x_max":1396,"o":"m 1028 331 l 1120 1078 l 1343 1078 q 1389 1048 1371 1078 q 1396 1024 1396 1036 q 1393 1008 1396 1017 l 1225 0 l 926 0 q 845 46 872 0 q 837 69 840 58 l 715 609 l 572 0 l 274 0 q 193 50 218 0 q 184 69 187 60 l 16 1078 l 232 1078 q 313 1028 286 1078 q 321 1008 319 1019 l 412 351 l 559 933 l 802 926 q 882 880 859 925 q 887 865 886 872 l 1028 331 z "},"x":{"ha":998,"x_min":23,"x_max":971,"o":"m 499 670 l 671 1078 l 892 1078 q 939 1048 921 1078 q 945 1024 945 1036 q 943 1008 945 1017 l 688 532 q 690 528 689 530 l 971 0 l 742 0 q 661 52 686 0 q 654 69 656 61 l 487 411 l 298 0 l 76 0 q 30 30 47 0 q 23 54 23 42 q 26 69 23 60 l 300 544 q 277 581 288 557 l 26 1078 l 255 1078 q 336 1028 309 1078 q 345 1008 342 1019 l 499 670 z "},"y":{"ha":960,"x_min":4,"x_max":951,"o":"m 490 597 l 678 1078 l 901 1078 q 945 1047 930 1078 q 951 1024 951 1036 q 949 1008 951 1013 l 629 361 l 629 0 l 420 0 q 357 41 374 0 q 351 69 351 56 l 351 373 q 307 430 323 393 l 4 1078 l 233 1078 q 315 1028 288 1078 q 323 1008 320 1019 l 490 597 z "},"z":{"ha":917,"x_min":56,"x_max":861,"o":"m 125 841 q 61 882 79 841 q 56 910 56 897 l 56 1078 l 792 1078 q 856 1035 838 1078 q 861 1008 861 1021 l 861 841 l 381 237 l 792 237 q 856 197 838 237 q 861 168 861 182 l 861 0 l 125 0 q 61 41 79 0 q 56 69 56 56 l 56 237 l 526 841 l 125 841 z "},"{":{"ha":500,"x_min":18,"x_max":480,"o":"m 88 396 q 23 438 41 396 q 18 465 18 452 l 18 597 q 104 610 90 597 q 123 715 123 629 q 411 1111 126 1109 q 475 1070 457 1111 q 480 1042 480 1055 l 480 910 q 357 868 384 910 q 334 715 334 830 q 285 498 332 562 q 334 278 334 433 q 374 94 334 125 q 411 83 391 83 q 475 42 457 83 q 480 14 480 27 l 480 -118 q 174 16 250 -118 q 123 278 123 106 q 102 393 123 380 q 88 396 95 396 z "},"|":{"ha":401,"x_min":83,"x_max":320,"o":"m 83 1078 l 250 1078 q 313 1038 296 1078 q 320 1008 320 1023 l 320 -222 l 153 -222 q 88 -180 106 -222 q 83 -153 83 -167 l 83 1078 z "},"}":{"ha":500,"x_min":19,"x_max":481,"o":"m 412 597 q 476 556 458 597 q 481 528 481 541 l 481 396 q 395 382 410 396 q 377 278 377 363 q 90 -118 374 -117 q 24 -76 42 -118 q 19 -49 19 -62 l 19 83 q 144 125 117 83 q 167 278 167 163 q 216 496 168 433 q 167 715 167 562 q 126 899 167 868 q 90 910 110 910 q 24 952 42 910 q 19 979 19 966 l 19 1111 q 327 975 251 1111 q 377 715 377 886 q 399 600 377 613 q 412 597 406 597 z "},"~":{"ha":964,"x_min":52,"x_max":914,"o":"m 914 503 q 680 304 821 336 q 591 294 637 294 q 461 347 541 294 q 343 400 378 396 q 266 362 296 399 q 199 334 243 334 q 153 345 176 334 l 52 393 q 288 590 145 557 q 378 600 330 600 q 515 547 431 600 q 631 496 595 499 q 700 533 671 498 q 765 563 724 562 q 812 552 789 563 l 914 503 z "}}}
